<svg xmlns="http://www.w3.org/2000/svg" xmlns:svg="http://www.w3.org/2000/svg" id="svg2" width="73" height="69" version="1.1"><metadata id="metadata7"/><g id="layer1" transform="translate(0,-983.36218)"><rect style="opacity:0;color:#000;fill:#eeeeec;fill-opacity:1;fill-rule:nonzero;stroke:none;stroke-width:4;marker:none;visibility:visible;display:inline;overflow:visible;enable-background:accumulate" id="rect6164-3" width="66.497" height="66.497" x="2.582" y="984.952"/><path style="font-size:medium;font-style:normal;font-variant:normal;font-weight:400;font-stretch:normal;text-indent:0;text-align:start;text-decoration:none;line-height:normal;letter-spacing:normal;word-spacing:normal;text-transform:none;direction:ltr;block-progression:tb;writing-mode:lr-tb;text-anchor:start;baseline-shift:baseline;color:#000;fill:#eeeeec;fill-opacity:1;stroke:none;stroke-width:11.64739989999999992;marker:none;visibility:visible;display:inline;overflow:visible;enable-background:accumulate;font-family:Sans;-inkscape-font-specification:Sans" id="path6019-8-6-5-3" d="m 35.854067,988.0043 c -16.652534,0 -30.1979549,13.5454 -30.1979549,30.1979 0,16.6525 13.5454209,30.198 30.1979549,30.198 16.652534,0 30.197955,-13.5455 30.197955,-30.198 0,-16.6525 -13.545421,-30.1979 -30.197955,-30.1979 z m 0,4.52545 c 14.208664,0 25.684647,11.46385 25.684647,25.67245 0,14.2087 -11.475983,25.6725 -25.684647,25.6725 -14.208658,0 -25.672508,-11.4638 -25.672508,-25.6725 0,-14.2086 11.46385,-25.67245 25.672508,-25.67245 z"/><path style="fill:#eeeeec;fill-opacity:1;stroke:none;display:inline" id="rect13090-4-6-0-6-3-1-9-8" d="m 41.250175,1008.4734 -10.259145,10.2021 c -2.245135,2.2326 -3.280033,4.8453 -2.320427,5.8579 0.959575,1.0126 3.53955,0.03 5.784685,-2.2022 l 10.259115,-10.2021 c 2.245106,-2.2326 3.280035,-4.8452 2.320426,-5.8578 -0.959575,-1.0126 -3.53955,-0.03 -5.784654,2.2021 z"/><g id="g13092-8-7-8-5-1-7-1-4" transform="matrix(-1.009087,-1.009087,-1.1060934,1.1060934,-588.46319,2122.6857)" style="fill:#eeeeec;fill-opacity:1;display:inline"><path style="fill:#eeeeec;fill-opacity:1;stroke:none" id="path13094-9-3-5-6-5-9-7-8" d="m 247.27748,-781.78902 -0.0349,1.94864 -8.91276,-1.10942 -8.97922,1.10942 -0.0349,-1.94864 8.98089,-4.07439 z"/></g><g id="g13098-1-3-7-8-9-1-8-9" transform="matrix(-0.46748244,-0.46748244,-0.82112713,0.82112713,-502.30752,1778.387)" style="fill:#eeeeec;fill-opacity:1;display:inline"><path style="fill:#eeeeec;fill-opacity:1;stroke:none" id="path13100-6-3-1-2-5-0-8-3" d="m 238.3277,-786.83187 9.1156,4.4686 -0.0177,1.4777 -9.14819,-0.77654 -9.08929,0.79974 0.002,-1.47696 z"/></g></g></svg>